{"asset":{"generator":"Khronos glTF Spline I/O v0.0.1","version":"2.0"},"scenes":[{"nodes":[0]}],"nodes":[{"name":"3D cube Combination","children":[1,2,3]},{"name":"3D cube Combination","matrix":[1,0,0,0,0,1,0,0,0,0,1,0,-65,57,0,1],"children":[4]},{"name":"Default Camera","camera":0,"translation":[-1.5593e-320,-1000.0149130799148,-149.13079904094138],"rotation":[0.7070714249637121,0,0,0.707142135641616],"children":[5]},{"name":"Rectangle","matrix":[1,0,0,0,0,1,0,0,0,0,1,0,0,0,-1,1],"mesh":0},{"name":"Untitled","matrix":[1,0,0,0,0,1,0,0,0,0,1,0,0,0,0,1],"children":[6,7,8]},{"name":"Default Directional Light","translation":[850000,1300000,1000000],"rotation":[-0.45895513091666534,0.1367267597249462,-0.25064115022945466,0.8413352451859125],"extensions":{"KHR_lights_punctual":{"light":0}}},{"name":"3D_Soma_Cube_Combination_Method","matrix":[1,0,0,0,0,1,0,0,0,0,1,0,-19.999999999999936,99,-2,1],"children":[9,10,11,12,13]},{"name":"Default_Camera","matrix":[0.7071067811865479,0,-0.7071067811865471,0,-0.40824829046386324,0.8164965809277256,-0.40824829046386374,0,0.5773502691896252,0.5773502691896264,0.5773502691896257,0,549.8814009211181,628.2371981577606,549.8814009211178,1],"children":[14]},{"name":"Rectangle","matrix":[1,0,0,0,0,1,0,0,0,0,1,0,110.99770307459806,166.42609647886036,-105.20309547110082,1],"mesh":1},{"name":"Text_xx_1","matrix":[1,0,0,0,0,1,0,0,0,0,1,0,0,0,0,1],"children":[15,16]},{"name":"Trim_Text_xx_1_1","matrix":[1,0,0,0,0,1,0,0,0,0,1,0,0,0,0,1]},{"name":"Text_xxxxxxxxxxxxxx_1","matrix":[1,0,0,0,0,1,0,0,0,0,1,0,0,0,0,1],"children":[17,18,19,20,21,22,23]},{"name":"Trim_Text_xxxxxxxxxxxxxx_1_1","matrix":[2.220446049250313e-16,0,-1,0,0,1,0,0,1,0,2.220446049250313e-16,0,4.149506272104063,82.05792447690419,2.5408397870870535e-16,1]},{"name":"group1","matrix":[0.05914580559933125,-0.9982419114374242,-0.00385485794342547,0,0.9982493544601,0.05914536460373199,0.00022839852337626864,0,1.488045797692905e-14,-0.0038616182682226505,0.9999925439243788,0,7.519011866150556,24.596870331701567,0.06289550468645289,1],"children":[24,25,26,27,28,29,30]},{"name":"Default_Directional_Light","matrix":[0.8369696139735455,-0.547249362982703,0,0,0.2962435713452065,0.45307840323384485,-0.8408089598474242,0,0.4601321676666518,0.7037315505489969,0.5413319619607667,0,850000,1300000,1000000,1],"children":[31]},{"name":"Char_x_1","matrix":[1,0,0,0,0,1,0,0,0,0,1,0,0,0,0,1]},{"name":"Char_x_2","matrix":[1,0,0,0,0,1,0,0,0,0,1,0,8.380857041743905,0,0,1]},{"name":"Char_x_3","matrix":[1,0,0,0,0,1,0,0,0,0,1,0,0,0,0,1]},{"name":"Char_x_4","matrix":[1,0,0,0,0,1,0,0,0,0,1,0,8.380857041743905,0,0,1]},{"name":"Char_x_5","matrix":[1,0,0,0,0,1,0,0,0,0,1,0,14.666499823051833,0,0,1]},{"name":"Char_x_6","matrix":[1,0,0,0,0,1,0,0,0,0,1,0,20.95214260435976,0,0,1]},{"name":"Char_x_7","matrix":[1,0,0,0,0,1,0,0,0,0,1,0,27.23778538566769,0,0,1]},{"name":"Char_x_8","matrix":[1,0,0,0,0,1,0,0,0,0,1,0,33.52342816697561,0,0,1]},{"name":"Char_x_9","matrix":[1,0,0,0,0,1,0,0,0,0,1,0,39.90453547414246,0,1,1]},{"name":"pCube2","matrix":[2.220446049250313e-16,0,1,0,0,1,0,0,-1,0,2.220446049250313e-16,0,4.242278592558781,12.726835777676344,-51.70900615959966,1],"mesh":2},{"name":"pCube3","matrix":[4.440892098500626e-16,-1,0,0,0,0,-1,0,1,4.440892098500626e-16,0,0,4.51544238803001,4.000000016661552,22.14530135862675,1],"mesh":3},{"name":"pCube4","matrix":[4.4408920985006257e-16,0.9999999999999999,-2.2204460492503128e-16,0,-2.2204460492503128e-16,2.2204460492503128e-16,0.9999999999999999,0,0.9999999999999999,-4.4408920985006257e-16,2.2204460492503128e-16,0,-4.242278592558781,4.242278592558781,-31.387611932547763,1],"mesh":4},{"name":"pCube5","matrix":[2.2204460492503128e-16,-2.2204460492503128e-16,0.9999999999999999,0,0.9999999999999999,1.7763568394002503e-15,-2.2204460492503128e-16,0,-1.7763568394002503e-15,0.9999999999999999,2.2204460492503128e-16,0,-4.467978072890503,43.75295766282805,-8.803715238113808,1],"mesh":5},{"name":"pCube6","matrix":[1,0,0,0,0,2.220446049250313e-16,-1,0,0,1,2.220446049250313e-16,0,-50.4984086524866,16.734557406874575,15.421116263516582,1],"mesh":6},{"name":"pCube7","matrix":[0,0,-1,0,-1,-5.773159728050814e-15,0,0,-5.773159728050814e-15,1,0,0,12.726835777676344,12.726835777676344,40.276618587366876,1],"mesh":7},{"name":"pCube8","matrix":[-0.9999619230641714,-0.008726535498373936,1.2244708285508168e-16,0,-0.008726203218641754,0.9999238475781956,0.008726535498373935,0,-0.00007615242180450288,0.008726203218641756,-0.9999619230641714,0,50.64106531456711,12.726835777676344,-4.336604922167622,1],"mesh":8},{"name":"EmptyObject","matrix":[1,0,0,0,0,1,0,0,0,0,1,0,0,0,-1,1]}],"cameras":[{"type":"orthographic","orthographic":{"xmag":1920,"ymag":1017,"zfar":50000,"znear":-50000}}],"meshes":[{"primitives":[{"attributes":{"POSITION":1,"NORMAL":2,"TEXCOORD_0":3},"indices":0}]},{"primitives":[{"attributes":{"POSITION":5,"NORMAL":6,"TEXCOORD_0":7},"indices":4}]},{"primitives":[{"attributes":{"POSITION":8,"NORMAL":9,"TEXCOORD_0":10}}]},{"primitives":[{"attributes":{"POSITION":11,"NORMAL":12,"TEXCOORD_0":13}}]},{"primitives":[{"attributes":{"POSITION":14,"NORMAL":15,"TEXCOORD_0":16}}]},{"primitives":[{"attributes":{"POSITION":17,"NORMAL":18,"TEXCOORD_0":19}}]},{"primitives":[{"attributes":{"POSITION":20,"NORMAL":21,"TEXCOORD_0":22}}]},{"primitives":[{"attributes":{"POSITION":23,"NORMAL":24,"TEXCOORD_0":25}}]},{"primitives":[{"attributes":{"POSITION":26,"NORMAL":27,"TEXCOORD_0":28}}]}],"buffers":[{"uri":"data:application/octet-stream;base64,","byteLength":140},{"uri":"data:application/octet-stream;base64,","byteLength":140},{"uri":"data:application/octet-stream;base64,","byteLength":96768},{"uri":"data:application/octet-stream;base64,","byteLength":124416},{"uri":"data:application/octet-stream;base64,","byteLength":124416},{"uri":"data:application/octet-stream;base64,","byteLength":124416},{"uri":"data:application/octet-stream;base64,","byteLength":124416},{"uri":"data:application/octet-stream;base64,","byteLength":124416},{"uri":"data:application/octet-stream;base64,","byteLength":115200}],"bufferViews":[{"buffer":0,"byteOffset":0,"byteLength":12,"target":34963},{"buffer":0,"byteOffset":12,"byteLength":128,"target":34962},{"buffer":1,"byteOffset":0,"byteLength":12,"target":34963},{"buffer":1,"byteOffset":12,"byteLength":128,"target":34962},{"buffer":2,"byteOffset":0,"byteLength":96768,"target":34962},{"buffer":3,"byteOffset":0,"byteLength":124416,"target":34962},{"buffer":4,"byteOffset":0,"byteLength":124416,"target":34962},{"buffer":5,"byteOffset":0,"byteLength":124416,"target":34962},{"buffer":6,"byteOffset":0,"byteLength":124416,"target":34962},{"buffer":7,"byteOffset":0,"byteLength":124416,"target":34962},{"buffer":8,"byteOffset":0,"byteLength":115200,"target":34962}],"accessors":[{"bufferView":0,"byteOffset":0,"componentType":5123,"count":6,"type":"SCALAR","min":[0],"max":[3]},{"bufferView":1,"byteOffset":0,"componentType":5126,"count":4,"type":"VEC3","min":[-160,-160,0],"max":[160,160,0]},{"bufferView":1,"byteOffset":48,"componentType":5126,"count":4,"type":"VEC3","min":[0,0,1],"max":[0,0,1]},{"bufferView":1,"byteOffset":96,"componentType":5126,"count":4,"type":"VEC2","min":[0,0],"max":[1,1]},{"bufferView":2,"byteOffset":0,"componentType":5123,"count":6,"type":"SCALAR","min":[0],"max":[3]},{"bufferView":3,"byteOffset":0,"componentType":5126,"count":4,"type":"VEC3","min":[-160,-160,0],"max":[160,160,0]},{"bufferView":3,"byteOffset":48,"componentType":5126,"count":4,"type":"VEC3","min":[0,0,1],"max":[0,0,1]},{"bufferView":3,"byteOffset":96,"componentType":5126,"count":4,"type":"VEC2","min":[0,0],"max":[1,1]},{"bufferView":4,"byteOffset":0,"componentType":5126,"count":3024,"type":"VEC3","min":[-4.242278575897217,-4.242278575897217,-4.242278575897217],"max":[4.242278575897217,12.726837158203125,12.726836204528809]},{"bufferView":4,"byteOffset":36288,"componentType":5126,"count":3024,"type":"VEC3","min":[-1,-1,-1],"max":[1,1,1]},{"bufferView":4,"byteOffset":72576,"componentType":5126,"count":3024,"type":"VEC2","min":[0.125,0],"max":[0.875,1]},{"bufferView":5,"byteOffset":0,"componentType":5126,"count":3888,"type":"VEC3","min":[-4,-4,-13],"max":[4,12,13]},{"bufferView":5,"byteOffset":46656,"componentType":5126,"count":3888,"type":"VEC3","min":[-1,-1,-1],"max":[1,1,1]},{"bufferView":5,"byteOffset":93312,"componentType":5126,"count":3888,"type":"VEC2","min":[0.125,0],"max":[0.875,1]},{"bufferView":6,"byteOffset":0,"componentType":5126,"count":3888,"type":"VEC3","min":[-4.242278575897217,-4.242278575897217,-4.242278575897217],"max":[4.242278575897217,12.726837158203125,21.211393356323242]},{"bufferView":6,"byteOffset":46656,"componentType":5126,"count":3888,"type":"VEC3","min":[-1,-1,-1],"max":[1,1,1]},{"bufferView":6,"byteOffset":93312,"componentType":5126,"count":3888,"type":"VEC2","min":[0.125,0],"max":[0.875,1]},{"bufferView":7,"byteOffset":0,"componentType":5126,"count":3888,"type":"VEC3","min":[-4.242278575897217,-4.242278575897217,-4.242278575897217],"max":[4.242278575897217,12.726836204528809,21.211395263671875]},{"bufferView":7,"byteOffset":46656,"componentType":5126,"count":3888,"type":"VEC3","min":[-1,-1,-1],"max":[1,1,1]},{"bufferView":7,"byteOffset":93312,"componentType":5126,"count":3888,"type":"VEC2","min":[0.125,0],"max":[0.875,1]},{"bufferView":8,"byteOffset":0,"componentType":5126,"count":3888,"type":"VEC3","min":[-7.75,-8,-8.25],"max":[23.25,24,24.75]},{"bufferView":8,"byteOffset":46656,"componentType":5126,"count":3888,"type":"VEC3","min":[-1,-1,-1],"max":[1,1,1]},{"bufferView":8,"byteOffset":93312,"componentType":5126,"count":3888,"type":"VEC2","min":[0.125,0],"max":[0.875,1]},{"bufferView":9,"byteOffset":0,"componentType":5126,"count":3888,"type":"VEC3","min":[-4.242278575897217,-4.242278575897217,-4.242278575897217],"max":[12.726836204528809,12.726836204528809,12.726836204528809]},{"bufferView":9,"byteOffset":46656,"componentType":5126,"count":3888,"type":"VEC3","min":[-1,-1,-1],"max":[1,1,1]},{"bufferView":9,"byteOffset":93312,"componentType":5126,"count":3888,"type":"VEC2","min":[0.125,0],"max":[0.875,1]},{"bufferView":10,"byteOffset":0,"componentType":5126,"count":3600,"type":"VEC3","min":[-4.242278575897217,-4.242278575897217,-4.242278575897217],"max":[12.726836204528809,12.726836204528809,12.726836204528809]},{"bufferView":10,"byteOffset":43200,"componentType":5126,"count":3600,"type":"VEC3","min":[-1,-1,-1],"max":[1,1,1]},{"bufferView":10,"byteOffset":86400,"componentType":5126,"count":3600,"type":"VEC2","min":[0.125,0],"max":[0.875,1]}],"extensions":{"KHR_lights_punctual":{"lights":[{"type":"directional","name":"Default Directional Light","color":[1,1,1],"intensity":0.75}]}},"extensionsUsed":["KHR_lights_punctual"]}